<svg xmlns="http://www.w3.org/2000/svg" viewBox="0 0 32 32">
  <defs>
    <linearGradient id="bg" x1="0" y1="0" x2="1" y2="1">
      <stop offset="0%" stop-color="#0f172a"/>
      <stop offset="50%" stop-color="#1e293b"/>
      <stop offset="100%" stop-color="#162033"/>
    </linearGradient>
  </defs>
  <rect width="32" height="32" rx="6" fill="url(#bg)"/>
  <circle cx="5" cy="27" r="1.5" fill="#6366f1" opacity="0.8"/>
  <circle cx="10" cy="27" r="1" fill="#6366f1" opacity="0.6"/>
  <line x1="6.5" y1="27" x2="9" y2="27" stroke="#6366f1" stroke-width="0.6" opacity="0.5"/>
  <circle cx="27" cy="5" r="1.5" fill="#6366f1" opacity="0.8"/>
  <circle cx="22" cy="5" r="1" fill="#6366f1" opacity="0.6"/>
  <line x1="23" y1="5" x2="25.5" y2="5" stroke="#6366f1" stroke-width="0.6" opacity="0.5"/>
  <!-- Cluster mesh -->
  <line x1="16" y1="8" x2="8" y2="16" stroke="#2dd4bf" stroke-width="0.8" opacity="0.6"/>
  <line x1="16" y1="8" x2="24" y2="16" stroke="#2dd4bf" stroke-width="0.8" opacity="0.6"/>
  <line x1="16" y1="8" x2="16" y2="24" stroke="#2dd4bf" stroke-width="0.8" opacity="0.6"/>
  <line x1="8" y1="16" x2="24" y2="16" stroke="#2dd4bf" stroke-width="0.8" opacity="0.6"/>
  <line x1="8" y1="16" x2="16" y2="24" stroke="#2dd4bf" stroke-width="0.8" opacity="0.6"/>
  <line x1="24" y1="16" x2="16" y2="24" stroke="#2dd4bf" stroke-width="0.8" opacity="0.6"/>
  <!-- Nodes as server boxes -->
  <rect x="13" y="5" width="6" height="5" rx="1.5" fill="#6366f1"/>
  <rect x="5" y="13.5" width="6" height="5" rx="1.5" fill="#6366f1"/>
  <rect x="21" y="13.5" width="6" height="5" rx="1.5" fill="#6366f1"/>
  <rect x="13" y="22" width="6" height="5" rx="1.5" fill="#6366f1"/>
</svg>
