<svg xmlns="http://www.w3.org/2000/svg" viewBox="0 0 32 32">
  <defs>
    <linearGradient id="bg" x1="0" y1="0" x2="1" y2="1">
      <stop offset="0%" stop-color="#0f172a"/>
      <stop offset="50%" stop-color="#1e293b"/>
      <stop offset="100%" stop-color="#162033"/>
    </linearGradient>
  </defs>
  <rect width="32" height="32" rx="6" fill="url(#bg)"/>
  <circle cx="5" cy="27" r="1.5" fill="#6366f1" opacity="0.8"/>
  <circle cx="10" cy="27" r="1" fill="#6366f1" opacity="0.6"/>
  <line x1="6.5" y1="27" x2="9" y2="27" stroke="#6366f1" stroke-width="0.6" opacity="0.5"/>
  <circle cx="27" cy="5" r="1.5" fill="#6366f1" opacity="0.8"/>
  <circle cx="22" cy="5" r="1" fill="#6366f1" opacity="0.6"/>
  <line x1="23" y1="5" x2="25.5" y2="5" stroke="#6366f1" stroke-width="0.6" opacity="0.5"/>
  <!-- Package box (kpkg) -->
  <path d="M16 5 L25 10 L25 22 L16 27 L7 22 L7 10 Z" fill="none" stroke="#6366f1" stroke-width="1.3" stroke-linejoin="round"/>
  <line x1="16" y1="16" x2="16" y2="27" stroke="#6366f1" stroke-width="1"/>
  <line x1="7" y1="10" x2="16" y2="16" stroke="#6366f1" stroke-width="1"/>
  <line x1="25" y1="10" x2="16" y2="16" stroke="#6366f1" stroke-width="1"/>
  <!-- Lock icon -->
  <rect x="13" y="12" width="6" height="5" rx="1" fill="#fb923c"/>
  <path d="M14.5 12 L14.5 10.5 C14.5 9 17.5 9 17.5 10.5 L17.5 12" fill="none" stroke="#fb923c" stroke-width="1"/>
</svg>
