<svg xmlns="http://www.w3.org/2000/svg" viewBox="0 0 32 32">
  <defs>
    <linearGradient id="bg" x1="0" y1="0" x2="1" y2="1">
      <stop offset="0%" stop-color="#0f172a"/>
      <stop offset="50%" stop-color="#1e293b"/>
      <stop offset="100%" stop-color="#162033"/>
    </linearGradient>
  </defs>
  <rect width="32" height="32" rx="6" fill="url(#bg)"/>
  <circle cx="5" cy="27" r="1.5" fill="#f59e0b" opacity="0.8"/>
  <circle cx="10" cy="27" r="1" fill="#f59e0b" opacity="0.6"/>
  <line x1="6.5" y1="27" x2="9" y2="27" stroke="#f59e0b" stroke-width="0.6" opacity="0.5"/>
  <circle cx="27" cy="5" r="1.5" fill="#f59e0b" opacity="0.8"/>
  <circle cx="22" cy="5" r="1" fill="#f59e0b" opacity="0.6"/>
  <line x1="23" y1="5" x2="25.5" y2="5" stroke="#f59e0b" stroke-width="0.6" opacity="0.5"/>
  <!-- Document (log file) -->
  <path d="M10 8 L20 8 L23 11 L23 24 L10 24 Z" fill="none" stroke="#f59e0b" stroke-width="1.3" stroke-linejoin="round"/>
  <path d="M20 8 L20 11 L23 11" fill="none" stroke="#f59e0b" stroke-width="1" stroke-linejoin="round"/>
  <!-- Log lines with color-coded levels -->
  <line x1="12.5" y1="14" x2="14.5" y2="14" stroke="#22c55e" stroke-width="1" stroke-linecap="round"/>
  <line x1="16" y1="14" x2="20.5" y2="14" stroke="#6366f1" stroke-width="0.8" stroke-linecap="round" opacity="0.5"/>
  <line x1="12.5" y1="16.5" x2="15" y2="16.5" stroke="#f59e0b" stroke-width="1" stroke-linecap="round"/>
  <line x1="16.5" y1="16.5" x2="20.5" y2="16.5" stroke="#6366f1" stroke-width="0.8" stroke-linecap="round" opacity="0.5"/>
  <line x1="12.5" y1="19" x2="14" y2="19" stroke="#ef4444" stroke-width="1" stroke-linecap="round"/>
  <line x1="15.5" y1="19" x2="20.5" y2="19" stroke="#6366f1" stroke-width="0.8" stroke-linecap="round" opacity="0.5"/>
  <line x1="12.5" y1="21.5" x2="14.5" y2="21.5" stroke="#22c55e" stroke-width="1" stroke-linecap="round"/>
  <line x1="16" y1="21.5" x2="20.5" y2="21.5" stroke="#6366f1" stroke-width="0.8" stroke-linecap="round" opacity="0.5"/>
</svg>
