<svg xmlns="http://www.w3.org/2000/svg" viewBox="0 0 32 32">
  <defs>
    <linearGradient id="bg" x1="0" y1="0" x2="1" y2="1">
      <stop offset="0%" stop-color="#0f172a"/>
      <stop offset="50%" stop-color="#1e293b"/>
      <stop offset="100%" stop-color="#162033"/>
    </linearGradient>
  </defs>
  <rect width="32" height="32" rx="6" fill="url(#bg)"/>
  <circle cx="5" cy="27" r="1.5" fill="#22c55e" opacity="0.8"/>
  <circle cx="10" cy="27" r="1" fill="#22c55e" opacity="0.6"/>
  <line x1="6.5" y1="27" x2="9" y2="27" stroke="#4ade80" stroke-width="0.6" opacity="0.5"/>
  <circle cx="27" cy="5" r="1.5" fill="#22c55e" opacity="0.8"/>
  <circle cx="22" cy="5" r="1" fill="#22c55e" opacity="0.6"/>
  <line x1="23" y1="5" x2="25.5" y2="5" stroke="#4ade80" stroke-width="0.6" opacity="0.5"/>
  <!-- Beaker / flask (test harness) -->
  <path d="M13 7 L13 14 L8 24 L24 24 L19 14 L19 7" fill="none" stroke="#22c55e" stroke-width="1.3" stroke-linejoin="round"/>
  <line x1="12" y1="7" x2="20" y2="7" stroke="#22c55e" stroke-width="1.3" stroke-linecap="round"/>
  <!-- Liquid level -->
  <path d="M10 20 L22 20 L24 24 L8 24 Z" fill="#22c55e" opacity="0.2"/>
  <!-- Bubbles -->
  <circle cx="14" cy="21" r="1" fill="#4ade80" opacity="0.6"/>
  <circle cx="18" cy="19" r="0.7" fill="#4ade80" opacity="0.5"/>
  <!-- Checkmark (tests passing) -->
  <polyline points="22,8 24,10 27,6" fill="none" stroke="#22c55e" stroke-width="1.5" stroke-linecap="round" stroke-linejoin="round"/>
</svg>
